<svg version="1.1" id="Layer_1" xmlns="http://www.w3.org/2000/svg" xmlns:xlink="http://www.w3.org/1999/xlink" x="0px" y="0px" viewBox="0 0 50 50" style="enable-background:new 0 0 50 50;" xml:space="preserve">
<style type="text/css">
	.st0{fill:url(#SVGID_1_);}
	.st1{fill:url(#SVGID_2_);}
	.st2{fill:url(#SVGID_3_);}
	.st3{fill:url(#SVGID_4_);}
	.st4{fill:url(#SVGID_5_);}
	.st5{fill:url(#SVGID_6_);}
	.st6{fill:url(#SVGID_7_);}
	.st7{fill:url(#SVGID_8_);}
	.st8{fill:url(#SVGID_9_);}
	.st9{fill:url(#SVGID_10_);}
	.st10{fill:url(#SVGID_11_);}
	.st11{fill:url(#SVGID_12_);}
	.st12{fill:url(#SVGID_13_);}
	.st13{fill:url(#SVGID_14_);}
	.st14{fill:url(#SVGID_15_);}
	.st15{fill:url(#SVGID_16_);}
	.st16{fill:url(#SVGID_17_);}
	.st17{fill:url(#SVGID_18_);}
	.st18{fill:url(#SVGID_19_);}
	.st19{fill:url(#SVGID_20_);}
	.st20{fill:url(#SVGID_21_);}
	.st21{fill:url(#SVGID_22_);}
	.st22{fill:url(#SVGID_23_);}
	.st23{fill:url(#SVGID_24_);}
	.st24{fill:url(#SVGID_25_);}
	.st25{fill:url(#SVGID_26_);}
	.st26{fill:url(#SVGID_27_);}
	.st27{fill:url(#SVGID_28_);}
	.st28{fill:url(#SVGID_29_);}
	.st29{fill:url(#SVGID_30_);}
	.st30{fill:url(#SVGID_31_);}
	.st31{fill:url(#SVGID_32_);}
	.st32{fill:url(#SVGID_33_);}
	.st33{fill:url(#SVGID_34_);}
	.st34{fill:url(#SVGID_35_);}
	.st35{fill:url(#SVGID_36_);}
	.st36{fill:url(#SVGID_37_);}
	.st37{fill:url(#SVGID_38_);}
	.st38{fill:url(#SVGID_39_);}
	.st39{fill:url(#SVGID_40_);}
	.st40{fill:url(#SVGID_41_);}
	.st41{fill:url(#SVGID_42_);}
	.st42{fill:url(#SVGID_43_);}
	.st43{fill:url(#SVGID_44_);}
	.st44{fill:url(#SVGID_45_);}
	.st45{fill:url(#SVGID_46_);}
	.st46{fill:url(#SVGID_47_);}
	.st47{fill:url(#SVGID_48_);}
	.st48{fill:url(#SVGID_49_);}
	.st49{fill:url(#SVGID_50_);}
	.st50{fill:url(#SVGID_51_);}
	.st51{fill:url(#SVGID_52_);}
	.st52{fill:url(#SVGID_53_);}
	.st53{fill:url(#SVGID_54_);}
	.st54{fill:url(#SVGID_55_);}
	.st55{fill:url(#SVGID_56_);}
	.st56{fill:url(#SVGID_57_);}
	.st57{fill:url(#SVGID_58_);}
	.st58{fill:url(#SVGID_59_);}
	.st59{fill:url(#SVGID_60_);}
	.st60{fill:url(#SVGID_61_);}
	.st61{fill:url(#SVGID_62_);}
	.st62{fill:url(#SVGID_63_);}
	.st63{fill:url(#SVGID_64_);}
	.st64{fill:url(#SVGID_65_);}
	.st65{fill:url(#SVGID_66_);}
	.st66{fill:url(#SVGID_67_);}
	.st67{fill:url(#SVGID_68_);}
	.st68{fill:url(#SVGID_69_);}
	.st69{fill:url(#SVGID_70_);}
	.st70{fill:url(#SVGID_71_);}
	.st71{fill:url(#SVGID_72_);}
	.st72{fill:url(#SVGID_73_);}
	.st73{fill:url(#SVGID_74_);}
	.st74{fill:url(#SVGID_75_);}
	.st75{fill:url(#SVGID_76_);}
	.st76{fill:url(#SVGID_77_);}
	.st77{fill:url(#SVGID_78_);}
	.st78{fill:url(#SVGID_79_);}
	.st79{fill:url(#SVGID_80_);}
	.st80{fill:url(#SVGID_81_);}
	.st81{fill:url(#SVGID_82_);}
	.st82{fill:url(#SVGID_83_);}
	.st83{fill:url(#SVGID_84_);}
	.st84{fill:#FFFFFF;}
</style>
<g>
<linearGradient id="SVGID_1_" gradientUnits="userSpaceOnUse" x1="3.6517" y1="23.3153" x2="43.1369" y2="23.3153">
<stop offset="0" style="stop-color: rgb(5, 204, 156);" id="id_108"></stop>
<stop offset="1" style="stop-color: rgb(7, 142, 199);" id="id_109"></stop>
</linearGradient>
<path class="st0" d="M9.2,39.4c-3.5-2.6-5.9-6.8-5.5-11.2c0.5-5.7,5.1-7.9,9.7-10c2.5-1.1,4.8-3,6.2-5.3c2-3.1,3.7-6.4,7.3-7.7
		c3.4-1.2,7.4-0.8,10.1,1.8c1.9,1.8,2.5,4.3,2.9,6.8c0.2,1.6,0.1,3.3,0.5,5c0.4,1.8,1.5,3,2.3,4.5c1.3,2.4-0.4,3.8-2.2,5.1
		c-2.1,1.6-2.2,3.9-3.1,6.2c-0.9,2.3-2.8,4.3-5.1,5.2c-3.1,1.2-6.6-0.2-9.8,0.6c-1.9,0.5-3.8,1.5-5.9,1.5C13.9,42,11.4,41,9.2,39.4z
		" id="id_101"></path>
<linearGradient id="SVGID_2_" gradientUnits="userSpaceOnUse" x1="12.4322" y1="13.1389" x2="16.3972" y2="9.8119">
<stop offset="4.522613e-02" style="stop-color: rgb(5, 204, 156);" id="id_110"></stop>
<stop offset="1" style="stop-color: rgb(7, 142, 199);" id="id_111"></stop>
</linearGradient>
<circle class="st1" cx="14.4" cy="11.5" r="2.6" id="id_102"></circle>
<linearGradient id="SVGID_3_" gradientUnits="userSpaceOnUse" x1="40.3827" y1="34.0827" x2="43.5248" y2="31.4462">
<stop offset="4.522613e-02" style="stop-color: rgb(5, 204, 156);" id="id_112"></stop>
<stop offset="1" style="stop-color: rgb(7, 142, 199);" id="id_113"></stop>
</linearGradient>
<circle class="st2" cx="42" cy="32.8" r="2.1" id="id_103"></circle>
<linearGradient id="SVGID_4_" gradientUnits="userSpaceOnUse" x1="24.9428" y1="44.9435" x2="26.7382" y2="43.4369">
<stop offset="4.522613e-02" style="stop-color: rgb(5, 204, 156);" id="id_114"></stop>
<stop offset="1" style="stop-color: rgb(7, 142, 199);" id="id_115"></stop>
</linearGradient>
<circle class="st3" cx="25.8" cy="44.2" r="1.2" id="id_104"></circle>
<linearGradient id="SVGID_5_" gradientUnits="userSpaceOnUse" x1="43.1068" y1="38.5958" x2="44.9023" y2="37.0893">
<stop offset="4.522613e-02" style="stop-color: rgb(5, 204, 156);" id="id_116"></stop>
<stop offset="1" style="stop-color: rgb(7, 142, 199);" id="id_117"></stop>
</linearGradient>
<circle class="st4" cx="44" cy="37.8" r="1.2" id="id_105"></circle>
<linearGradient id="SVGID_6_" gradientUnits="userSpaceOnUse" x1="44.2787" y1="15.9884" x2="46.0742" y2="14.4819">
<stop offset="4.522613e-02" style="stop-color: rgb(5, 204, 156);" id="id_118"></stop>
<stop offset="1" style="stop-color: rgb(7, 142, 199);" id="id_119"></stop>
</linearGradient>
<circle class="st5" cx="45.2" cy="15.2" r="1.2" id="id_106"></circle>
<linearGradient id="SVGID_7_" gradientUnits="userSpaceOnUse" x1="7.6576" y1="10.8126" x2="9.4531" y2="9.3061">
<stop offset="4.522613e-02" style="stop-color: rgb(5, 204, 156);" id="id_120"></stop>
<stop offset="1" style="stop-color: rgb(7, 142, 199);" id="id_121"></stop>
</linearGradient>
<circle class="st6" cx="8.6" cy="10.1" r="1.2" id="id_107"></circle>
</g>
<g id="XMLID_468_">
<path id="XMLID_469_" class="st84" d="M30.1,26.2c0,0-1.4-0.7-1.6-0.8c-0.1,0-0.2-0.1-0.3-0.1c-0.2,0-0.3,0.1-0.5,0.3
		c-0.1,0.2-0.5,0.7-0.7,0.8c0,0,0,0-0.1,0c0,0-0.2-0.1-0.3-0.1c-1.4-0.6-2.5-2.1-2.7-2.4c0,0,0-0.1,0-0.1c0,0,0.1-0.1,0.1-0.1
		c0.1-0.1,0.2-0.2,0.2-0.3c0,0,0.1-0.1,0.1-0.1c0.1-0.1,0.2-0.2,0.2-0.3l0-0.1c0.1-0.3,0-0.5,0-0.6c0-0.1-0.6-1.4-0.7-1.6
		c-0.1-0.3-0.3-0.5-0.6-0.5c0,0,0,0-0.1,0c-0.1,0-0.8,0.1-1.1,0.3c-0.3,0.2-0.9,0.9-0.9,2c0,1,0.7,2,0.9,2.4c0,0,0,0,0,0.1
		c1.1,1.6,2.4,2.7,3.8,3.3c1.3,0.5,1.9,0.6,2.3,0.6c0,0,0,0,0,0c0.1,0,0.3,0,0.4,0l0.1,0c0.5,0,1.4-0.6,1.7-1.2
		c0.2-0.5,0.2-1,0.1-1.2C30.4,26.3,30.3,26.2,30.1,26.2z"></path>
<path id="XMLID_470_" class="st84" d="M25.8,15.6c-5,0-9.1,4-9.1,9c0,1.6,0.4,3.2,1.2,4.5l-1.6,4.6c0,0.1,0,0.2,0.1,0.2
		c0,0,0.1,0.1,0.2,0.1c0,0,0,0,0.1,0l4.8-1.5c1.3,0.7,2.8,1.1,4.3,1.1c5,0,9.1-4,9.1-9C34.9,19.6,30.8,15.6,25.8,15.6z M25.8,31.7
		c-1.4,0-2.8-0.4-4-1.2c0,0-0.1,0-0.1,0c0,0,0,0-0.1,0l-2.4,0.8l0.8-2.3c0-0.1,0-0.2,0-0.2c-0.9-1.2-1.4-2.7-1.4-4.2
		c0-3.9,3.2-7.1,7.2-7.1c4,0,7.2,3.2,7.2,7.1C33,28.5,29.8,31.7,25.8,31.7z"></path>
</g>
</svg>