<svg id="Layer_1" data-name="Layer 1" xmlns="http://www.w3.org/2000/svg" viewBox="0 0 128 128"><defs><style>.cls-1{fill:#2d3e50;}.cls-2{fill:#2e79bd;}</style></defs><title>n</title><path class="cls-1" d="M126.19782,107.14361c-8.11195-30.47614-13.56322-59.78094-15.90059-87.71828a3.92839,3.92839,0,0,0-3.89567-3.25962H21.59839a3.92835,3.92835,0,0,0-3.89563,3.25962C15.36535,47.36267,9.91415,76.66747,1.80216,107.14361a3.71578,3.71578,0,0,0,.87455,3.25962,3.93129,3.93129,0,0,0,3.02109,1.43106H122.30215a3.93147,3.93147,0,0,0,3.02115-1.43106A3.71567,3.71567,0,0,0,126.19782,107.14361ZM11.55719,103.354A517.56621,517.56621,0,0,0,25.75111,24.646h76.49777A517.51244,517.51244,0,0,0,116.44282,103.354Z" id="id_101" style="fill: rgb(255, 255, 255);"></path><path class="cls-2" d="M83.1353,44.28484v7.2013a19.13524,19.13524,0,1,1-38.27049,0V44.28492a5.55663,5.55663,0,1,1,6.138-.00005v7.20127a12.99722,12.99722,0,0,0,25.99443,0V44.28494a5.55662,5.55662,0,1,1,6.138-.0001Z" id="id_102" style="fill: rgb(255, 255, 255);"></path></svg>