<?xml version="1.0" encoding="utf-8"?>
<!-- Generator: Adobe Illustrator 26.0.3, SVG Export Plug-In . SVG Version: 6.00 Build 0)  -->
<svg version="1.1" id="Layer_1" xmlns="http://www.w3.org/2000/svg" xmlns:xlink="http://www.w3.org/1999/xlink" x="0px" y="0px"
	 viewBox="0 0 221.1 221.1" style="enable-background:new 0 0 221.1 221.1;" xml:space="preserve">
<style type="text/css">
	.st0{fill:#244A54;}
	.st1{fill:#4FE0A3;}
</style>
<g id="b7c2b4cf-bc35-4089-b375-8515ecb6a319">
	<g id="e2ad0347-195b-4dd9-bc38-052b75b3b0e7">
		<path class="st0" d="M122.9,109.6h5.8c1.5,0.1,3-0.5,4.2-1.5c0.9-1,1.4-2.3,1.4-3.7v-7.2h-2.4v7.2c0.1,1-0.2,1.9-0.9,2.6
			c-0.6,0.6-1.4,0.9-2.2,0.8h-6.1c-0.8,0-1.6-0.2-2.2-0.8c-0.6-0.7-0.9-1.7-0.9-2.6c0-0.3,0-0.6,0.1-0.9c0.1-0.3,0.2-0.6,0.3-0.9
			l-2-0.5c-0.2,0.4-0.3,0.8-0.4,1.2c-0.1,0.4-0.1,0.7-0.1,1.1c-0.1,1.4,0.4,2.7,1.4,3.7C119.9,109.2,121.4,109.7,122.9,109.6z"/>
		<path class="st0" d="M128.9,102.8h-1.7c-0.8,0-1.5-0.4-1.9-1.1c-0.1-0.2-0.2-0.5-0.2-0.7c0-0.3,0.2-0.6,0.6-0.7
			c0.1,0,0.2-0.1,0.4-0.1c0.5,0,0.8,0.3,1,0.9l1.8-0.4c-0.5-1.1-1.5-1.9-2.7-1.9c-0.9-0.1-1.7,0.2-2.3,0.8c-0.3,0.3-0.5,0.7-0.5,1.2
			c0,0.1,0,0.1,0,0.2c0,0.4,0.1,0.7,0.3,1.1c0.1,0.3,0.3,0.5,0.5,0.8h-1.1v1.6h6L128.9,102.8z"/>
		<path class="st0" d="M163.6,99.6c0.1,0.1,0.2,0.2,0.4,0.2c0.1,0.1,0.3,0.1,0.5,0.1c0.2,0,0.3,0,0.5-0.1c0.1-0.1,0.3-0.1,0.4-0.2
			c0.1-0.1,0.2-0.2,0.3-0.4c0.1-0.1,0.1-0.3,0.1-0.4c0-0.2,0-0.3-0.1-0.4c-0.1-0.1-0.1-0.3-0.3-0.4c-0.1-0.1-0.2-0.2-0.4-0.2
			c-0.1-0.1-0.3-0.1-0.5-0.1c-0.2,0-0.3,0-0.5,0.1c-0.1,0.1-0.3,0.1-0.4,0.2c-0.1,0.1-0.2,0.2-0.3,0.4c-0.1,0.1-0.1,0.3-0.1,0.4
			c0,0.2,0,0.3,0.1,0.4C163.4,99.3,163.5,99.5,163.6,99.6z"/>
		<path class="st0" d="M180.1,113.4c0.1,0.1,0.3,0.1,0.5,0.1c0.2,0,0.3,0,0.5-0.1c0.1-0.1,0.3-0.1,0.4-0.2c0.1-0.1,0.2-0.2,0.3-0.3
			c0.1-0.1,0.1-0.3,0.1-0.4c0-0.2,0-0.3-0.1-0.5c-0.1-0.1-0.1-0.3-0.3-0.4c-0.1-0.1-0.2-0.2-0.4-0.2c-0.1-0.1-0.3-0.1-0.5-0.1
			c-0.2,0-0.3,0-0.5,0.1c-0.1,0.1-0.3,0.1-0.4,0.2c-0.1,0.1-0.2,0.2-0.3,0.4c-0.1,0.1-0.1,0.3-0.1,0.5c0,0.2,0,0.3,0.1,0.4
			c0.1,0.1,0.2,0.3,0.3,0.3C179.8,113.3,179.9,113.3,180.1,113.4z"/>
		<path class="st0" d="M200.2,106.2c0,0.5-0.2,0.9-0.5,1.3c-0.3,0.3-0.6,0.4-1,0.4h-15c-0.5,0-1-0.2-1.4-0.5
			c-0.4-0.4-0.6-0.9-0.6-1.5v-4.7h-2.4v4.4c0.1,0.6-0.2,1.3-0.6,1.7c-0.4,0.4-0.9,0.5-1.4,0.5h-9.5c-0.5,0-1-0.2-1.4-0.5
			c-0.4-0.4-0.6-0.9-0.6-1.5v-4.7h-2.4v4.4c0,0.6-0.2,1.3-0.6,1.7c-0.4,0.4-0.9,0.5-1.4,0.5h-15.2v-6c0-0.9-0.6-1.6-1.7-2
			c-0.9-0.4-1.8-0.5-2.7-0.5l0,0c-1.5-0.1-3,0.5-4.2,1.5c-0.9,1-1.4,2.3-1.4,3.7c0,1.3,0.5,2.6,1.4,3.6c1.1,1,2.6,1.6,4.1,1.5h1.9
			c-0.1,0.4-0.2,0.8-0.4,1.2c-0.2,0.4-0.5,0.7-0.7,1c-0.4,0.5-0.9,0.9-1.3,1.3l1.7,1.1c0.5-0.4,1-0.9,1.4-1.4
			c0.4-0.4,0.7-0.8,0.9-1.3c0.4-0.6,0.6-1.2,0.8-1.8h15.5c1.2,0.1,2.3-0.4,3.2-1.1c0.8,0.7,1.8,1.1,2.9,1.1l0,0h9.9
			c1.2,0.1,2.3-0.4,3.2-1.1c0.8,0.7,1.9,1.1,2.9,1.1l0,0h15.2c1.1,0,2.1-0.4,2.8-1.1c0.7-0.6,1.1-1.5,1.1-2.4v-8.9h-2.4L200.2,106.2
			z M143.8,107.9h-1.9c-0.9,0-1.8-0.3-2.4-0.9c-0.6-0.7-1-1.6-0.9-2.5c-0.1-1,0.2-1.9,0.9-2.6c0.6-0.6,1.4-0.9,2.2-0.8l0,0
			c0.5,0,1.1,0.1,1.6,0.3c0.3,0.1,0.5,0.3,0.5,0.5L143.8,107.9z"/>
		<rect x="204.6" y="97.2" class="st0" width="2.4" height="11.7"/>
		<path class="st0" d="M121.6,113.6c-0.1-0.1-0.3-0.1-0.5-0.1c-0.2,0-0.3,0-0.5,0.1c-0.1,0.1-0.3,0.1-0.4,0.2
			c-0.1,0.1-0.2,0.2-0.3,0.4c-0.1,0.1-0.1,0.3-0.1,0.4c0,0.2,0,0.3,0.1,0.4c0.1,0.1,0.2,0.3,0.3,0.4c0.1,0.1,0.2,0.2,0.4,0.2
			c0.1,0.1,0.3,0.1,0.5,0.1c0.2,0,0.3,0,0.5-0.1c0.1-0.1,0.3-0.1,0.4-0.2c0.1-0.1,0.2-0.2,0.3-0.4c0.1-0.1,0.1-0.3,0.1-0.4
			c0-0.2,0-0.3-0.1-0.4c-0.1-0.1-0.2-0.3-0.3-0.4C121.9,113.7,121.8,113.6,121.6,113.6z"/>
		<path class="st0" d="M124.5,113.6c-0.1-0.1-0.3-0.1-0.5-0.1c-0.2,0-0.3,0-0.5,0.1c-0.1,0.1-0.3,0.1-0.4,0.2
			c-0.1,0.1-0.2,0.2-0.3,0.4c-0.1,0.1-0.1,0.3-0.1,0.4c0,0.2,0,0.3,0.1,0.4c0.1,0.1,0.2,0.3,0.3,0.4c0.1,0.1,0.2,0.2,0.4,0.2
			c0.1,0.1,0.3,0.1,0.5,0.1c0.2,0,0.3,0,0.5-0.1c0.1-0.1,0.3-0.1,0.4-0.2c0.1-0.1,0.2-0.2,0.3-0.4c0.1-0.1,0.1-0.3,0.1-0.4
			c0-0.2,0-0.3-0.1-0.4c-0.1-0.1-0.1-0.3-0.3-0.4C124.8,113.7,124.6,113.6,124.5,113.6z"/>
		<path class="st0" d="M133.7,124c0,0.5-0.2,0.9-0.5,1.2c-0.3,0.3-0.6,0.4-1,0.4h-2.5c-0.6,0-1.2-0.1-1.6-0.5
			c-0.4-0.5-0.7-1.1-0.6-1.7v-3.8c0-0.9-0.6-1.6-1.7-2c-0.9-0.3-1.8-0.5-2.7-0.5l0,0c-1.5-0.1-3,0.5-4.2,1.5c-1,1-1.5,2.4-1.4,3.8
			c-0.1,1.8,0.8,3.6,2.5,4.4c0.7,0.4,1.5,0.6,2.2,0.6h0.4c0.7,0,1.3-0.1,1.9-0.3c0.6-0.2,1.2-0.5,1.6-1l0.1,0.1
			c0.6,0.6,1.4,1,2.3,1.1v0.1h3.7c1.1,0,2.1-0.4,2.8-1.1c0.7-0.6,1.1-1.5,1.1-2.4v-5h-2.4V124z M125,123.4c-0.1,1-0.7,1.8-1.6,2.1
			c-0.3,0.1-0.6,0.2-0.9,0.2h-0.2c-0.4,0-0.7-0.1-1-0.3c-1-0.6-1.6-1.8-1.5-3c-0.1-1,0.2-1.9,0.9-2.6c0.6-0.6,1.4-0.9,2.3-0.8l0,0
			c0.5,0,1.1,0.1,1.5,0.3c0.3,0.1,0.5,0.3,0.5,0.5L125,123.4z"/>
		<path class="st0" d="M131.7,129.4c-0.1-0.1-0.2-0.2-0.4-0.2c-0.1-0.1-0.3-0.1-0.5-0.1c-0.2,0-0.3,0-0.5,0.1
			c-0.1,0.1-0.3,0.1-0.4,0.2c-0.1,0.1-0.2,0.2-0.3,0.4c-0.1,0.1-0.1,0.3-0.1,0.4c0,0.2,0,0.3,0.1,0.4c0.1,0.1,0.2,0.3,0.3,0.4
			c0.1,0.1,0.2,0.2,0.4,0.2c0.1,0.1,0.3,0.1,0.5,0.1c0.2,0,0.3,0,0.5-0.1c0.1-0.1,0.3-0.1,0.4-0.2c0.1-0.1,0.2-0.2,0.3-0.4
			c0.1-0.1,0.1-0.3,0.1-0.4c0-0.2,0-0.3-0.1-0.4C131.9,129.6,131.8,129.5,131.7,129.4z"/>
		<path class="st0" d="M134.6,129.4c-0.1-0.1-0.2-0.2-0.4-0.2c-0.1-0.1-0.3-0.1-0.5-0.1c-0.2,0-0.3,0-0.5,0.1
			c-0.1,0.1-0.3,0.1-0.4,0.2c-0.1,0.1-0.2,0.2-0.3,0.4c-0.1,0.1-0.1,0.3-0.1,0.4c0,0.2,0,0.3,0.1,0.4c0.1,0.1,0.2,0.3,0.3,0.4
			c0.1,0.1,0.2,0.2,0.4,0.2c0.1,0.1,0.3,0.1,0.5,0.1c0.2,0,0.3,0,0.5-0.1c0.1-0.1,0.3-0.1,0.4-0.2c0.1-0.1,0.2-0.2,0.3-0.4
			c0.1-0.1,0.1-0.3,0.1-0.4c0-0.2,0-0.3-0.1-0.4C134.8,129.6,134.7,129.5,134.6,129.4z"/>
		<path class="st0" d="M145.7,124.6c-0.1-1.7-0.5-3.4-1.2-5c-0.9-1.7-2.6-2.5-5-2.5v1.7c1.3-0.1,2.5,0.6,3,1.8
			c0.5,1.3,0.8,2.7,0.9,4.1c0.1,0.5,0.1,0.8,0.1,0.9H140c-0.3,0-0.6,0-0.9-0.1c-0.4-0.2-0.7-0.4-1-0.7l-0.9,1.9l0.8,0.3
			c0.6,0.2,1.3,0.4,2,0.4h5c0.3,0,0.6-0.1,0.8-0.3c0.2-0.1,0.3-0.4,0.3-0.6c0,0,0-0.1,0-0.1C145.9,126.1,145.8,125.5,145.7,124.6z"
			/>
		<path class="st0" d="M199.7,124c0,0.5-0.2,0.9-0.5,1.2c-0.3,0.3-0.6,0.4-1,0.4h-1.9c-0.5,0-1-0.2-1.4-0.5
			c-0.4-0.4-0.6-0.9-0.6-1.5V119h-2.4v4.4c0,0.6-0.2,1.3-0.6,1.7c-0.4,0.4-0.9,0.5-1.4,0.5c-0.5,0-1-0.2-1.4-0.5
			c-0.4-0.5-0.7-1.1-0.6-1.7V119h-2.4v4.4c0,0.6-0.2,1.3-0.6,1.7c-0.4,0.4-0.9,0.5-1.4,0.5c-0.5,0-1-0.2-1.4-0.5
			c-0.4-0.5-0.7-1.1-0.6-1.7V119H179v4.4c0,0.6-0.2,1.3-0.6,1.7c-0.4,0.4-0.9,0.5-1.4,0.5h-3.1c0.9-0.8,1.5-1.8,1.7-3
			c0.2-0.6,0.3-1.2,0.3-1.7c0-0.8-0.2-1.6-0.8-2.3c-0.6-0.7-1.3-1.1-2.2-1.3c-0.6-0.2-1.2-0.2-1.8-0.2h-1.6c-0.6,0-1.2,0.1-1.7,0.2
			c-0.9,0.2-1.6,0.6-2.2,1.3c-0.5,0.6-0.8,1.5-0.8,2.3c0,0.6,0.1,1.2,0.3,1.7c0.3,1.1,0.9,2.2,1.7,3h-8.5v-6c0-0.9-0.6-1.6-1.7-2
			c-0.9-0.3-1.8-0.5-2.7-0.5l0,0c-1.5-0.1-3,0.5-4.2,1.5c-1,1-1.5,2.3-1.4,3.7c-0.1,1.3,0.5,2.6,1.4,3.6c1.1,1,2.6,1.6,4.1,1.5h1.9
			c-0.1,0.4-0.2,0.8-0.4,1.2c-0.2,0.4-0.5,0.7-0.7,1c-0.4,0.5-0.9,0.9-1.3,1.3l1.7,1.1c0.5-0.4,1-0.9,1.4-1.4c0.4-0.4,0.7-0.8,1-1.2
			c0.4-0.6,0.6-1.2,0.8-1.9h19c1.2,0.1,2.3-0.4,3.2-1.2c0.9,0.8,2,1.2,3.2,1.2c1.2,0.1,2.4-0.4,3.3-1.2c0.9,0.8,2,1.2,3.2,1.2
			c1.2,0.1,2.4-0.4,3.2-1.2c0.9,0.8,2,1.2,3.2,1.2h1.9c1.1,0,2.1-0.4,2.8-1.1c0.7-0.6,1.1-1.5,1.1-2.4v-9h-2.4L199.7,124z
			 M155.9,125.7H154c-0.9,0-1.8-0.3-2.4-0.9c-0.6-0.7-1-1.5-0.9-2.5c-0.1-1,0.2-1.9,0.9-2.6c0.6-0.6,1.4-0.9,2.2-0.8l0,0
			c0.5,0,1.1,0.1,1.5,0.3c0.3,0.1,0.5,0.3,0.5,0.5L155.9,125.7z M173.3,122.4c-0.3,1.1-1,2-1.9,2.7c-0.3,0.3-0.7,0.5-1.1,0.6
			c-0.4-0.2-0.8-0.4-1.1-0.6c-0.9-0.7-1.6-1.6-1.9-2.7c-0.1-0.5-0.2-0.9-0.2-1.4c0-0.5,0.1-1,0.4-1.4c0.3-0.3,0.6-0.5,1-0.6
			c0.3-0.1,0.7-0.1,1-0.1h1.6c0.3,0,0.7,0,1,0.1c0.4,0.1,0.7,0.3,1,0.6c0.3,0.4,0.4,0.9,0.4,1.4
			C173.5,121.4,173.4,121.9,173.3,122.4z"/>
		<rect x="204.4" y="115.1" class="st0" width="2.4" height="11.7"/>
		<path class="st1" d="M117.7,145.4l1-0.5c0.7,1.2,1.5,1.7,2.4,1.7c0.4,0,0.7-0.1,1.1-0.2c0.3-0.2,0.6-0.4,0.8-0.7
			c0.2-0.3,0.3-0.6,0.3-0.9c0-0.4-0.1-0.8-0.4-1.1c-0.6-0.7-1.2-1.3-1.9-1.7c-0.6-0.4-1.2-0.9-1.7-1.5c-0.4-0.5-0.6-1-0.6-1.6
			c0-0.5,0.1-0.9,0.4-1.3c0.2-0.4,0.6-0.7,1-0.9c0.4-0.2,0.9-0.3,1.4-0.3c0.5,0,1,0.1,1.5,0.4c0.6,0.4,1.1,0.8,1.5,1.4l-0.9,0.7
			c-0.3-0.4-0.7-0.8-1.1-1.1c-0.3-0.2-0.6-0.3-1-0.3c-0.4,0-0.8,0.1-1.1,0.4c-0.3,0.2-0.4,0.6-0.4,1c0,0.2,0.1,0.5,0.2,0.7
			c0.1,0.3,0.3,0.5,0.6,0.7c0.1,0.1,0.6,0.5,1.5,1.1c0.8,0.5,1.5,1.1,2,1.8c0.3,0.5,0.5,1,0.6,1.6c0,0.8-0.4,1.5-1,2
			c-0.6,0.6-1.4,0.9-2.3,0.9c-0.7,0-1.3-0.2-1.9-0.5C118.6,146.7,118,146.1,117.7,145.4"/>
		<path class="st1" d="M130.6,140.2c-0.6,0-1.2,0.1-1.7,0.4c-0.5,0.3-0.9,0.7-1.2,1.2c-0.3,0.5-0.4,1-0.4,1.6c0,0.6,0.2,1.1,0.5,1.6
			c0.3,0.5,0.7,0.9,1.2,1.2c0.5,0.3,1.1,0.4,1.7,0.4c0.6,0,1.2-0.1,1.7-0.4c0.5-0.3,0.9-0.7,1.2-1.1c0.3-0.5,0.4-1.1,0.4-1.6
			c0-0.9-0.3-1.7-1-2.3C132.3,140.6,131.5,140.2,130.6,140.2 M134.9,139.5v7.9h-1.1V146c-0.4,0.5-0.9,0.9-1.5,1.2
			c-0.6,0.3-1.2,0.4-1.9,0.4c-1.1,0-2.2-0.4-3-1.2c-1.6-1.5-1.7-4.1-0.2-5.7c0.1-0.1,0.1-0.1,0.2-0.2c0.8-0.8,1.9-1.2,3.1-1.2
			c0.7,0,1.3,0.1,1.9,0.4c0.6,0.3,1.1,0.7,1.5,1.2v-1.5L134.9,139.5z"/>
		<path class="st1" d="M137.2,139.5h1.1v3.7c0,0.6,0,1.2,0.1,1.9c0.1,0.5,0.5,0.9,0.9,1.2c1,0.6,2.1,0.6,3.1,0
			c0.4-0.3,0.7-0.6,0.9-1.1c0.1-0.6,0.2-1.3,0.2-1.9v-3.7h1.1v3.9c0,0.8-0.1,1.7-0.4,2.5c-0.3,0.5-0.7,1-1.2,1.3
			c-0.6,0.3-1.3,0.5-2,0.5c-0.7,0-1.4-0.1-2.1-0.5c-0.5-0.3-1-0.8-1.2-1.3c-0.3-0.8-0.4-1.7-0.4-2.5L137.2,139.5z"/>
		<path class="st1" d="M151.1,140.2c-0.6,0-1.2,0.1-1.7,0.4c-0.5,0.3-0.9,0.7-1.2,1.2c-0.6,1-0.6,2.2,0,3.2c0.3,0.5,0.7,0.9,1.2,1.2
			c0.5,0.3,1.1,0.4,1.7,0.4c0.6,0,1.2-0.1,1.7-0.4c0.5-0.3,0.9-0.7,1.2-1.1c0.3-0.5,0.4-1.1,0.4-1.6c0-0.9-0.3-1.7-1-2.3
			C152.8,140.6,151.9,140.2,151.1,140.2 M155.4,136.4v11h-1.1V146c-0.4,0.5-0.9,0.9-1.5,1.2c-0.6,0.3-1.2,0.4-1.9,0.4
			c-1.1,0-2.2-0.4-3-1.2c-1.6-1.5-1.7-4.1-0.2-5.7c0.1-0.1,0.1-0.1,0.2-0.2c0.8-0.8,1.9-1.2,3.1-1.2c0.7,0,1.3,0.1,1.9,0.4
			c0.6,0.3,1.1,0.7,1.5,1.2v-4.5H155.4z"/>
		<path class="st1" d="M157.7,139.5h1.1v7.9h-1.1V139.5z M158.2,136.2c0.2,0,0.5,0.1,0.6,0.2c0.2,0.2,0.3,0.4,0.3,0.6
			c0,0.2-0.1,0.4-0.3,0.6c-0.3,0.3-0.9,0.4-1.2,0c0,0,0,0,0,0c-0.2-0.1-0.3-0.4-0.3-0.6c0-0.2,0.1-0.4,0.3-0.6
			C157.8,136.3,158,136.2,158.2,136.2"/>
		<path class="st1" d="M166.7,142.2v4.1h1.4c0.6,0,1.2,0,1.8-0.2c0.4-0.1,0.7-0.4,0.9-0.7c0.2-0.3,0.4-0.7,0.3-1.1
			c0-0.5-0.2-0.9-0.5-1.2c-0.4-0.4-0.8-0.6-1.4-0.7c-0.7-0.1-1.3-0.2-2-0.1H166.7z M166.7,137.7v3.4h0.7c0.6,0,1.2,0,1.7-0.2
			c0.4-0.1,0.7-0.4,0.9-0.7c0.2-0.3,0.3-0.6,0.3-1c0-0.5-0.2-0.9-0.6-1.2c-0.5-0.3-1.1-0.5-1.7-0.4H166.7z M165.6,136.7h2.2
			c0.7,0,1.4,0.1,2.1,0.3c0.5,0.2,0.9,0.5,1.1,0.9c0.3,0.4,0.4,0.9,0.4,1.4c0,0.5-0.1,0.9-0.4,1.3c-0.3,0.4-0.6,0.8-1.1,1
			c0.5,0.1,1,0.4,1.4,0.7c0.6,0.5,1,1.3,1,2.1c0,0.8-0.4,1.6-1,2.2c-0.8,0.6-1.7,0.9-2.7,0.9h-3.1V136.7z"/>
		<path class="st1" d="M178.5,140.2c-0.6,0-1.2,0.1-1.7,0.4c-0.5,0.3-0.9,0.7-1.2,1.2c-0.6,1-0.6,2.2,0,3.2c0.3,0.5,0.7,0.9,1.2,1.2
			c0.5,0.3,1.1,0.4,1.7,0.4c0.6,0,1.2-0.1,1.7-0.4c0.5-0.3,0.9-0.7,1.2-1.1c0.7-1.3,0.5-2.9-0.5-3.9
			C180.3,140.6,179.4,140.2,178.5,140.2 M182.9,139.5v7.9h-1.1V146c-0.4,0.5-0.9,0.9-1.5,1.2c-0.6,0.3-1.2,0.4-1.9,0.4
			c-1.1,0-2.2-0.4-3-1.2c-0.8-0.8-1.3-1.8-1.3-3c0-1.1,0.5-2.2,1.3-2.9c0.8-0.8,1.9-1.2,3.1-1.2c0.6,0,1.3,0.1,1.9,0.4
			c0.6,0.3,1.1,0.7,1.5,1.2v-1.5L182.9,139.5z"/>
		<path class="st1" d="M185.3,139.5h1.1v1.4c0.4-0.5,0.9-0.9,1.5-1.2c0.5-0.3,1.1-0.4,1.7-0.4c0.6,0,1.2,0.1,1.7,0.5
			c0.5,0.3,0.8,0.7,1.1,1.2c0.3,0.8,0.4,1.6,0.3,2.4v4.1h-1.1v-3.8c0-0.6,0-1.2-0.1-1.8c-0.1-0.5-0.3-0.9-0.7-1.2
			c-0.4-0.3-0.9-0.4-1.4-0.4c-0.6,0-1.3,0.2-1.7,0.6c-0.5,0.4-0.9,0.9-1,1.5c-0.1,0.7-0.2,1.4-0.2,2.2v2.9h-1.1V139.5z"/>
		<polygon class="st1" points="195,136.4 196,136.4 196,142.7 199.9,139.5 201.5,139.5 196.9,143.3 201.8,147.4 200.3,147.4 
			196,143.8 196,147.4 195,147.4 		"/>
		<path class="st1" d="M207.2,140.3l-0.7,0.7c-0.5-0.5-1.1-0.8-1.7-0.8c-0.3,0-0.6,0.1-0.9,0.3c-0.2,0.2-0.4,0.5-0.4,0.8
			c0,0.3,0.1,0.5,0.3,0.7c0.4,0.4,0.8,0.7,1.3,0.9c0.6,0.3,1.2,0.6,1.6,1.1c0.3,0.4,0.4,0.8,0.4,1.2c0,0.6-0.3,1.2-0.7,1.7
			c-0.5,0.4-1.1,0.7-1.8,0.7c-0.5,0-1-0.1-1.4-0.3c-0.4-0.2-0.8-0.5-1.1-0.8l0.7-0.7c0.4,0.5,1.1,0.8,1.7,0.9c0.4,0,0.8-0.1,1.1-0.4
			c0.3-0.2,0.5-0.6,0.5-0.9c0-0.3-0.1-0.6-0.3-0.8c-0.4-0.4-0.9-0.7-1.4-0.9c-0.6-0.2-1.1-0.6-1.6-1.1c-0.3-0.4-0.4-0.8-0.4-1.2
			c0-0.6,0.2-1.1,0.7-1.5c0.5-0.4,1-0.6,1.7-0.6C205.7,139.3,206.5,139.7,207.2,140.3"/>
		<path class="st1" d="M20.7,93l-4.2-4.3c-0.9-0.9-0.9-2.4,0-3.3c0.9-0.9,2.4-0.9,3.3,0l4.2,4.3c0.9,0.9,0.9,2.4,0,3.3
			C23.1,93.9,21.6,93.9,20.7,93L20.7,93"/>
		<path class="st0" d="M52.2,82l-4.8-4.6c-0.9-0.9-0.9-2.3-0.1-3.3c0.9-0.9,2.3-0.9,3.3-0.1c0,0,0,0,0,0l4.8,4.6
			c0.9,0.9,0.9,2.3,0.1,3.3C54.5,82.9,53.1,82.9,52.2,82"/>
		<path class="st0" d="M46.1,140.1l5.2-21.6c0-0.2,0.1-0.4,0.1-0.6c0-0.7-0.2-1.4-0.7-1.8L30.9,96.3c-1.1-0.8-2.6-0.7-3.5,0.4
			c-0.7,0.9-0.7,2.2,0,3.1l18.8,18.7l-5,20.3c-0.4,1.3,0.4,2.7,1.7,3.1s2.7-0.4,3.1-1.7C46,140.2,46,140.1,46.1,140.1"/>
		<path class="st1" d="M54,144.7L54,144.7c-1.2-0.3-2-1.6-1.7-2.8c0,0,0,0,0,0l6.7-26.3c0.2-0.9,0.9-1.5,1.8-1.7l40.1-9.8
			c1.2-0.3,2.5,0.5,2.8,1.7s-0.5,2.5-1.7,2.8L63.2,118l-6.4,25C56.4,144.3,55.2,145.1,54,144.7C54,144.7,54,144.7,54,144.7"/>
		<path class="st1" d="M52.9,111.4L36.7,95.3c-0.9-0.9-0.9-2.4,0-3.3c0.9-0.9,2.4-0.9,3.3,0l0,0l16.2,16.1c0.9,0.9,0.9,2.4,0,3.3
			C55.3,112.3,53.8,112.3,52.9,111.4"/>
		<path class="st0" d="M29.8,88.4L20.3,79c-0.9-0.9-0.9-2.4,0-3.3c0.9-0.9,2.4-0.9,3.3,0l9.5,9.5c0.9,0.9,0.9,2.4,0,3.3
			S30.7,89.3,29.8,88.4"/>
		<path class="st0" d="M23.3,108.7l-8.7-9c-0.9-0.9-0.8-2.4,0.1-3.3c0.9-0.9,2.4-0.8,3.3,0.1l0,0l8.7,9c0.9,0.9,1,2.3,0.1,3.3
			c-0.9,0.9-2.3,1-3.3,0.1C23.4,108.8,23.4,108.8,23.3,108.7"/>
		<path class="st1" d="M77.1,131.9c-0.1,0.2-0.2,0.3-0.3,0.5l-1.4,5c-0.4,1.3,0.3,2.7,1.7,3.1c1.2,0.4,2.6-0.3,3.1-1.5l0.9-3.8
			l5.7-1.2c1.3-0.3,2.2-1.6,1.9-3c-0.3-1.3-1.6-2.2-3-1.9l0,0l-7.1,1.5C78,130.9,77.5,131.3,77.1,131.9"/>
		<path class="st1" d="M65.5,95.1c0.2,0,0.4,0,0.6-0.1l8.6-2c1.3-0.3,2.2-1.7,1.8-3s-1.7-2.2-3-1.8l-7.3,1.7l-4.1-4.1
			c-1.1-0.8-2.7-0.6-3.5,0.5c-0.7,0.9-0.7,2.1,0,3l5.1,5.1C64.2,94.8,64.8,95.1,65.5,95.1"/>
		<path class="st1" d="M40.1,119c-0.1-0.2-0.2-0.3-0.4-0.5l-6.2-6.2c-1-1-2.5-1-3.5,0c-1,1-1,2.5,0,3.5c0,0,0,0,0,0l5.2,5.3
			l-1.3,5.7c-0.3,1.3,0.5,2.7,1.9,3s2.7-0.5,3-1.9l1.7-7C40.6,120.3,40.5,119.6,40.1,119"/>
		<path class="st0" d="M62.2,106.2c0.2,0,0.4,0,0.6-0.1l21.6-5.2c1.4-0.3,2.3-1.6,2-2.9s-1.6-2.3-2.9-2c-0.1,0-0.2,0-0.3,0.1L63,101
			L39.3,77.3c-1.1-0.8-2.6-0.7-3.5,0.4c-0.7,0.9-0.7,2.2,0,3.1l24.6,24.7C60.9,105.9,61.6,106.2,62.2,106.2"/>
		<path class="st0" d="M89.6,118.1L70,122.9c-0.4,0.1-0.8,0.3-1,0.6c-0.1,0-0.1,0.1-0.1,0.1l-0.1,0.1c-0.3,0.3-0.5,0.7-0.5,1.1
			l-4.8,19.6c-0.4,1.3,0.4,2.7,1.7,3.1c1.3,0.4,2.7-0.4,3.1-1.7c0-0.1,0-0.2,0.1-0.3l4.4-18.2l18.2-4.4c1.3-0.3,2.2-1.7,1.8-3
			C92.3,118.6,90.9,117.8,89.6,118.1L89.6,118.1"/>
	</g>
</g>
</svg>
