<svg xmlns="http://www.w3.org/2000/svg" viewBox="0 0 64 64"><title>bank, finance, capital, building, museum, </title><g id="Outline"><path d="M60.9,56H58V53.1A1.1,1.1,0,0,0,56.9,52H51s0,0,0,0V50a2,2,0,0,0-2-2V31a2.05,2.05,0,0,0,2-2V27h1.9A1.1,1.1,0,0,0,54,25.9V23h4.68a1.1,1.1,0,0,0,.62-2L32.62,2.73a1.11,1.11,0,0,0-1.24,0L4.7,21a1.1,1.1,0,0,0,.62,2H11v2.9A1.1,1.1,0,0,0,12.1,27H13v2a2,2,0,0,0,2,2l0,17a2.05,2.05,0,0,0-2,2V52s0,0,0,0H7.1A1.1,1.1,0,0,0,6,53.1V56H3.1A1.1,1.1,0,0,0,2,57.1v3.8A1.1,1.1,0,0,0,3.1,62H60.9A1.1,1.1,0,0,0,62,60.9V57.1A1.1,1.1,0,0,0,60.9,56ZM49,29a0,0,0,0,1,0,0,2,2,0,0,0-2,2V48a2,2,0,0,0,2,2l0,2-6,0,0-2a2,2,0,0,0,2-2V31a2,2,0,0,0-2-2l0-2h6ZM21,48V31a2.05,2.05,0,0,0,2-2V27h4v2a2,2,0,0,0,2,2l0,17a2.05,2.05,0,0,0-2,2V52s0,0,0,0H23s0,0,0,0V50A2,2,0,0,0,21,48ZM29,52l0-2a2,2,0,0,0,2-2V31a2,2,0,0,0-2-2l0-2h6v2a0,0,0,0,1,0,0,2,2,0,0,0-2,2V48a2,2,0,0,0,2,2l0,2ZM35,48V31a2.05,2.05,0,0,0,2-2V27h4v2a2,2,0,0,0,2,2l0,17a2.05,2.05,0,0,0-2,2V52s0,0,0,0H37s0,0,0,0V50A2,2,0,0,0,35,48ZM52,25H13V23H52ZM15.09,21,32,8.77,48.91,21ZM32,4.72,55.77,21H52.32L32.64,6.77a1.1,1.1,0,0,0-1.29,0L11.68,21H8.23ZM15,52l0-2a2,2,0,0,0,2-2V31a2,2,0,0,0-2-2l0-2h6v2a0,0,0,0,1,0,0,2,2,0,0,0-2,2V48a2,2,0,0,0,2,2l0,2ZM8,54H56v2H8Zm52,6H4V58H60Z" id="id_101" style="fill: rgb(64, 64, 64);"></path></g></svg>