<svg width="64" height="64" viewBox="0 0 64 64" fill="none" xmlns="http://www.w3.org/2000/svg">
<path d="M55.31 35.24V27.92C55.3074 26.6345 54.7955 25.4024 53.8866 24.4934C52.9776 23.5844 51.7455 23.0726 50.46 23.07H47.72L51.06 19.74C51.2427 19.5483 51.3463 19.2947 51.35 19.03C51.3508 18.8984 51.3255 18.7679 51.2758 18.6461C51.226 18.5242 51.1527 18.4134 51.06 18.32L38.13 5.38997C38.037 5.29624 37.9264 5.22185 37.8046 5.17108C37.6827 5.12031 37.552 5.09417 37.42 5.09417C37.288 5.09417 37.1573 5.12031 37.0354 5.17108C36.9136 5.22185 36.803 5.29624 36.71 5.38997L34.3 7.79997L24.89 3.09997C24.6482 2.98905 24.3741 2.97125 24.12 3.04997C23.8711 3.13854 23.6643 3.31685 23.54 3.54997L13.81 23.07H7.81C6.53146 23.0831 5.30961 23.5996 4.40925 24.5074C3.50889 25.4153 3.00256 26.6414 3 27.92V56.15C3.00264 57.4355 3.51447 58.6675 4.42345 59.5765C5.33243 60.4855 6.56451 60.9973 7.85 61H50.46C51.7455 60.9973 52.9776 60.4855 53.8866 59.5765C54.7955 58.6675 55.3074 57.4355 55.31 56.15V47.15C56.2705 47.1164 57.1806 46.7124 57.8499 46.0227C58.5191 45.333 58.8954 44.411 58.9 43.45V38.95C58.9005 37.9865 58.5261 37.0605 57.8561 36.3681C57.1861 35.6757 56.273 35.2711 55.31 35.24V35.24ZM37.42 7.50997L48.94 19L44.94 23H41.26L42.26 22.06C42.3537 21.967 42.4281 21.8564 42.4789 21.7345C42.5297 21.6127 42.5558 21.482 42.5558 21.35C42.5558 21.218 42.5297 21.0873 42.4789 20.9654C42.4281 20.8435 42.3537 20.7329 42.26 20.64C42.0387 20.4197 41.8631 20.158 41.7432 19.8696C41.6234 19.5813 41.5617 19.2722 41.5617 18.96C41.5617 18.6477 41.6234 18.3386 41.7432 18.0503C41.8631 17.762 42.0387 17.5002 42.26 17.28C42.3537 17.187 42.4281 17.0764 42.4789 16.9545C42.5297 16.8327 42.5558 16.702 42.5558 16.57C42.5558 16.438 42.5297 16.3073 42.4789 16.1854C42.4281 16.0635 42.3537 15.9529 42.26 15.86L40.5 14.24C40.3126 14.0537 40.0592 13.9492 39.795 13.9492C39.5308 13.9492 39.2774 14.0537 39.09 14.24C38.8706 14.461 38.6097 14.6364 38.3222 14.7561C38.0347 14.8758 37.7264 14.9374 37.415 14.9374C37.1036 14.9374 36.7953 14.8758 36.5078 14.7561C36.2203 14.6364 35.9594 14.461 35.74 14.24C35.647 14.1462 35.5364 14.0718 35.4146 14.0211C35.2927 13.9703 35.162 13.9442 35.03 13.9442C34.898 13.9442 34.7673 13.9703 34.6454 14.0211C34.5236 14.0718 34.413 14.1462 34.32 14.24L25.5 23.07H21.86L37.42 7.50997ZM28.43 23C29.0974 22.3452 29.9951 21.9785 30.93 21.9785C31.8649 21.9785 32.7626 22.3452 33.43 23L33.51 23.1H28.32L28.43 23ZM35.96 23.1C35.6955 22.5343 35.3333 22.0198 34.89 21.58C33.9557 20.6608 32.7267 20.1012 31.42 20L35.11 16.31C35.8032 16.7363 36.6011 16.962 37.415 16.962C38.2289 16.962 39.0268 16.7363 39.72 16.31L40.17 16.75C39.7477 17.4252 39.5194 18.2036 39.51 19C39.5104 19.8147 39.7428 20.6125 40.18 21.3L38.44 23.04L35.96 23.1ZM23.29 18.81L25.49 14.39C26.2501 14.5683 27.0441 14.5407 27.79 14.31L23.29 18.81ZM24.89 5.33997L32.81 9.28997L30.89 11.21L30 10.75C29.882 10.69 29.7532 10.6541 29.6212 10.6443C29.4892 10.6345 29.3566 10.651 29.231 10.6929C29.1054 10.7348 28.9894 10.8011 28.8896 10.8882C28.7899 10.9752 28.7085 11.0812 28.65 11.2C28.5118 11.478 28.3201 11.7261 28.0859 11.93C27.8516 12.1338 27.5795 12.2894 27.285 12.3879C26.9905 12.4864 26.6795 12.5257 26.3698 12.5038C26.06 12.4818 25.7577 12.399 25.48 12.26C25.2438 12.1414 24.9703 12.1211 24.7192 12.2035C24.4681 12.286 24.2599 12.4644 24.14 12.7L18.94 23.07H16.05L24.89 5.33997ZM50.46 59H7.85C7.09494 58.9973 6.37157 58.6962 5.83766 58.1623C5.30375 57.6284 5.00264 56.905 5 56.15V27.92C5.00264 27.1649 5.30375 26.4415 5.83766 25.9076C6.37157 25.3737 7.09494 25.0726 7.85 25.07H50.46C51.2151 25.0726 51.9384 25.3737 52.4723 25.9076C53.0063 26.4415 53.3074 27.1649 53.31 27.92V35.23H45.85C45.0543 35.23 44.2913 35.546 43.7287 36.1087C43.1661 36.6713 42.85 37.4343 42.85 38.23V44.14C42.85 44.9356 43.1661 45.6987 43.7287 46.2613C44.2913 46.8239 45.0543 47.14 45.85 47.14H53.31V56.14C53.31 56.8968 53.0101 57.6227 52.4759 58.1588C51.9417 58.6948 51.2168 58.9973 50.46 59V59ZM44.85 40.07H45.76C46.0375 40.0963 46.2952 40.2251 46.4828 40.4313C46.6703 40.6375 46.7743 40.9062 46.7743 41.185C46.7743 41.4637 46.6703 41.7324 46.4828 41.9386C46.2952 42.1448 46.0375 42.2737 45.76 42.3H44.85V40.07ZM56.85 43.43C56.8474 43.8827 56.6664 44.3161 56.3463 44.6362C56.0261 44.9563 55.5927 45.1373 55.14 45.14H45.85C45.6103 45.1431 45.3775 45.0599 45.1939 44.9058C45.0104 44.7516 44.8883 44.5366 44.85 44.3H45.73C46.5256 44.2549 47.2739 43.907 47.8212 43.3278C48.3685 42.7486 48.6734 41.9819 48.6734 41.185C48.6734 40.3881 48.3685 39.6214 47.8212 39.0421C47.2739 38.4629 46.5256 38.1151 45.73 38.07H44.85C44.8883 37.8333 45.0104 37.6184 45.1939 37.4642C45.3775 37.31 45.6103 37.2269 45.85 37.23H55.19C55.6418 37.23 56.0752 37.4087 56.3956 37.7273C56.716 38.0458 56.8974 38.4782 56.9 38.93L56.85 43.43Z" fill="#707070" id="id_101"></path>
</svg>