<svg xmlns="http://www.w3.org/2000/svg" xml:space="preserve" width="850px" height="850px" version="1.1" style="shape-rendering:geometricPrecision; text-rendering:geometricPrecision; image-rendering:optimizeQuality; fill-rule:evenodd; clip-rule:evenodd" viewBox="0 0 850 850" xmlns:xlink="http://www.w3.org/1999/xlink">
<defs>
<style type="text/css">
   
    .fil1 {fill:white}
    .fil0 {fill:url(#id0)}
   
  </style>
<linearGradient id="id0" gradientUnits="userSpaceOnUse" x1="425" y1="0" x2="425" y2="850">
<stop offset="0" style="stop-opacity: 1; stop-color: rgb(7, 142, 199);" id="id_108"></stop>
<stop offset="0.490196" style="stop-opacity: 1; stop-color: rgb(59, 199, 192);" id="id_109"></stop>
<stop offset="1" style="stop-opacity: 1; stop-color: rgb(49, 148, 143);" id="id_110"></stop>
</linearGradient>
</defs>
<g id="Layer_x0020_1">
<metadata id="CorelCorpID_0Corel-Layer"></metadata>
<circle class="fil0" cx="425" cy="425" r="425" id="id_106"></circle>
<path class="fil1" d="M558 681l-267 0c-14,0 -25,-12 -25,-25l0 -33 317 0 0 32c1,14 -11,26 -25,26zm-292 -73l0 -413c0,-14 12,-26 25,-26l51 0 0 23c0,13 10,23 23,23l119 0c13,0 23,-10 24,-23l0 -23 49 0c14,0 26,12 26,26l0 413 -317 0zm167 44l-17 0c-4,0 -7,-3 -7,-7 0,-4 3,-8 7,-8l17 0c4,0 8,4 8,8 0,4 -4,7 -8,7zm-8 -60c-9,0 -17,-1 -26,-3 -25,-7 -46,-23 -59,-46 -27,-46 -11,-106 35,-133 0,0 0,0 0,0 47,-27 107,-11 134,35 13,23 17,49 10,75 -7,25 -23,46 -46,59 -15,8 -31,13 -48,13zm-42 -170c-40,23 -53,74 -30,114 11,19 29,33 50,38 22,6 44,3 63,-8 19,-11 33,-29 39,-50 6,-22 3,-44 -8,-64 -23,-39 -74,-53 -114,-30zm26 144c0,0 -1,0 -1,-1 -3,-1 -6,-3 -6,-6l-2 -50 -42 -27c-3,-2 -4,-5 -3,-8 1,-3 3,-6 6,-6l100 -3c3,-2 7,-1 9,2 1,1 1,1 1,2 1,2 1,5 0,7l-56 86c-1,2 -3,4 -6,4zm-24 -84l22 14 27 -16 -49 2zm29 26l1 27 27 -43 -28 16zm119 -262l-54 0c-4,0 -8,-3 -8,-7 0,-4 4,-7 8,-7l54 0c4,0 7,3 7,7 0,4 -3,7 -7,7zm-84 0l-132 0c-4,0 -8,-3 -8,-7 0,-4 4,-7 8,-7l132 0c4,0 7,3 7,7 0,4 -4,7 -7,7zm84 40l-93 0c-4,0 -8,-3 -8,-7 0,-5 4,-8 8,-8l93 0c4,0 7,3 7,8 0,4 -3,7 -7,7zm-123 0l-93 0c-4,0 -8,-3 -8,-7 0,-5 4,-8 8,-8l93 0c4,0 7,3 7,8 0,4 -3,7 -7,7zm123 39l-216 0c-4,0 -8,-4 -8,-8 0,-4 4,-7 8,-7l216 0c4,0 7,3 7,7 0,4 -3,8 -7,8zm0 39l-216 0c-4,0 -8,-3 -8,-8 0,-4 4,-7 8,-7l216 0c4,0 7,3 7,7 0,5 -3,8 -7,8zm-177 -195l137 0 0 23c0,5 -4,9 -9,9l-119 0c-5,0 -9,-4 -9,-9l0 -23z" id="id_107"></path>
</g>
</svg>