<svg xmlns="http://www.w3.org/2000/svg" xml:space="preserve" width="512px" height="512px" version="1.1" style="shape-rendering:geometricPrecision; text-rendering:geometricPrecision; image-rendering:optimizeQuality; fill-rule:evenodd; clip-rule:evenodd" viewBox="0 0 512 512" xmlns:xlink="http://www.w3.org/1999/xlink" xmlns:xodm="http://www.corel.com/coreldraw/odm/2003">
<defs>
<style type="text/css">
   
    .fil0 {fill:url(#id0)}
   
  </style>
<linearGradient id="id0" gradientUnits="userSpaceOnUse" x1="256.13" y1="449.94" x2="256.13" y2="62.13">
<stop offset="0" style="stop-opacity: 1; stop-color: rgb(7, 142, 199);" id="id_102"></stop>
<stop offset="0.490196" style="stop-opacity: 1; stop-color: rgb(5, 204, 156);" id="id_103"></stop>
<stop offset="1" style="stop-opacity: 1; stop-color: rgb(7, 142, 199);" id="id_104"></stop>
</linearGradient>
</defs>
<g id="Layer_x0020_1">
<metadata id="CorelCorpID_0Corel-Layer"></metadata>
<path class="fil0" d="M111.38 255.79l-29.92 0c-3.74,0 -6.65,-2.49 -7.07,-6.24l-3.74 -25.35c-0.41,0 -0.83,-0.41 -1.66,-0.41l-20.36 15.37c-2.91,2.08 -7.07,2.08 -9.56,-0.83l-21.61 -21.19c-2.5,-2.49 -2.91,-6.65 -0.83,-9.56l15.79 -20.78c-0.42,-0.42 -0.42,-0.83 -0.83,-1.66l-25.35 -3.74c-3.74,-0.42 -6.24,-3.74 -6.24,-7.07l0 -30.33c0,-3.74 2.5,-6.66 6.24,-7.07l25.35 -3.74c0.41,-0.41 0.41,-0.83 0.83,-1.66l-15.38 -20.78c-2.08,-2.91 -2.08,-7.07 0.83,-9.56l21.61 -21.19c2.5,-2.5 6.65,-2.91 9.56,-0.84l20.36 15.38c0.42,-0.41 0.84,-0.41 1.67,-0.41l3.74 -25.77c0.41,-3.74 3.74,-6.24 7.06,-6.24l29.93 0.01c3.74,0 6.65,2.49 7.06,6.23l3.74 25.77c0.42,0 0.83,0.41 1.66,0.41l20.37 -15.38c2.91,-2.07 7.06,-2.07 9.56,0.84l21.19 21.19c2.49,2.49 2.91,6.65 0.83,9.56l-15.38 20.78c0.42,0.42 0.42,1.25 0.84,1.66l25.35 3.74c3.74,0.42 6.23,3.74 6.23,7.07l0 30.33c0,3.74 -2.49,6.65 -6.23,7.07l-25.35 3.74c-0.42,0.42 -0.42,0.83 -0.84,1.66l15.38 20.78c2.08,2.91 1.66,7.07 -0.83,9.56l-21.19 21.2c-2.5,2.49 -6.65,2.9 -9.56,0.83l-20.37 -15.38c-0.41,0.41 -0.83,0.41 -1.66,0.41l-3.74 25.36c-0.83,3.74 -3.74,6.23 -7.48,6.23zm366.77 194.15l-445.13 0c-18.3,0 -32.86,-14.98 -32.86,-32.87l0 -26.62c0,-4.16 3.33,-7.49 7.49,-7.49l174.31 0 0 29.12c0,7.07 5.82,12.9 12.89,12.9l121.48 0c7.48,0 13.31,-5.83 13.72,-12.9l0 -29.12 174.73 0c4.16,0 7.48,3.33 7.48,7.49l0 26.62c-0.83,18.31 -15.8,32.87 -34.11,32.87zm-282.05 -66.98l118.56 0 0 27.46 -118.56 0 0 -27.46zm-158.92 -14l0 -115.66c6.54,2.34 14.01,1.47 19.88,-2.96l2.97 -2.24 0.51 3.5c1.56,10.55 10.21,18.19 20.92,18.19l29.92 0c10.69,0 19.76,-7.55 21.33,-18.19l0.52 -3.5 2.96 2.24c8.42,6.35 20.47,5.32 27.9,-2.11l21.19 -21.19c7.4,-7.4 8.42,-19.36 2.19,-27.79l-2.52 -3.39 4.11 -0.61c10.56,-1.56 18.19,-10.2 18.19,-20.92l0 -30.33c0,-10.48 -7.82,-19.39 -18.19,-20.92l-4.11 -0.6 2.52 -3.4c2.75,-3.73 4.09,-8.15 4.08,-12.56l263.72 0c10.4,0 18.72,8.32 18.72,19.14l0 243.3 -157.94 0 -278.87 0zm218.41 -45.43c-2.49,0 -4.99,-1.25 -6.23,-3.74l-45.72 -78.13c-1.25,-2.08 -1.25,-4.99 0,-7.48 1.25,-2.08 3.74,-3.74 6.24,-3.74l15.37 0 0 -70.65c0,-4.16 3.33,-7.48 7.48,-7.48l45.72 0c4.15,0 7.48,3.32 7.48,7.48l0 71.06 15.79 0c2.49,0 4.99,1.25 6.23,3.74 1.25,2.08 1.25,4.99 0,7.48l-46.13 77.72c-1.24,2.49 -3.32,3.74 -6.23,3.74zm-32.83 -78.13l33.24 56.52 33.25 -56.52 -10.8 0c-4.16,0 -7.48,-3.33 -7.48,-7.07l0 -71.48 -31.17 0 0 71.07c0,4.15 -3.33,7.06 -7.48,7.06l-9.56 0 0 0.42zm137.56 107.22l-209.46 0c-4.15,0 -7.48,-3.33 -7.48,-7.48l0 -31.17c0,-4.16 3.33,-7.48 7.48,-7.48 4.16,0 7.48,3.32 7.48,7.48l0 23.69 195.33 0 0 -23.69c0,-4.15 3.32,-7.48 7.48,-7.48 4.15,0 7.48,3.33 7.48,7.48l0 31.17c-0.83,4.16 -4.16,7.48 -8.31,7.48zm-263.9 -154.18c-21.61,0 -39.07,-17.46 -39.07,-39.48 0,-21.61 17.46,-39.07 39.07,-39.07 21.61,0 39.06,17.46 39.06,39.07 0,22.02 -17.45,39.48 -39.06,39.48zm0 -63.59c-13.3,0 -24.52,10.81 -24.52,24.52 0,13.72 10.81,24.94 24.52,24.94 13.71,0 24.52,-11.22 24.52,-24.94 0,-13.3 -11.22,-24.52 -24.52,-24.52z" id="id_101"></path>
</g>
</svg>